<svg id="Layer_1" data-name="Layer 1" xmlns="http://www.w3.org/2000/svg" viewBox="0 0 512 512"><rect x="146.02" y="162.75" width="28" height="187.53" style="fill:#d4e1f4"/><path d="M255.952,433.9c-.038.006,0,.006.048,0s.086,0,.048,0l.017,0c-.021,0-.043,0-.065,0s-.044,0-.065,0Z" style="fill:#0635c9"/><path d="M262,422.313V395.875h14.889a6,6,0,0,0,6-6V162.75a6,6,0,0,0-6-6H262V129.691H250V156.75H235.111a6,6,0,0,0-6,6V389.875a6,6,0,0,0,6,6H250v26.438a40.069,40.069,0,1,0,12,0Zm-20.889-38.438V168.75h29.778V383.875ZM256,490a28.1,28.1,0,0,1-28.069-28.069c0-15.221,12.877-27.626,28-28.033,0,0,.011,0,.065,0s.068,0,.065,0c15.127.407,28,12.812,28,28.033A28.1,28.1,0,0,1,256,490Z" style="fill:#0635c9"/><path d="M365.976,156.75H351.087V129.691h-12V156.75H324.2a6,6,0,0,0-6,6V429.469a6,6,0,0,0,6,6h41.777a6,6,0,0,0,6-6V162.75A6,6,0,0,0,365.976,156.75Zm-6,266.719H330.2V168.75h29.777Z" style="fill:#0635c9"/><path d="M187.8,156.75H172.913V129.691h-12V156.75H146.024a6,6,0,0,0-6,6V350.28a6,6,0,0,0,6,6H187.8a6,6,0,0,0,6-6V162.75A6,6,0,0,0,187.8,156.75Zm-6,187.53H152.024V168.75H181.8Z" style="fill:#0635c9"/><path d="M256,437.7a24.229,24.229,0,1,0,24.229,24.229A24.256,24.256,0,0,0,256,437.7Zm0,36.458a12.229,12.229,0,1,1,12.229-12.229A12.243,12.243,0,0,1,256,474.16Z" style="fill:#0635c9"/><path d="M253.262,182.113a6,6,0,0,0-6,6v7.777a6,6,0,0,0,12,0v-7.777A6,6,0,0,0,253.262,182.113Z" style="fill:#0635c9"/><path d="M253.262,212.713a6,6,0,0,0-6,6V300.89a6,6,0,0,0,12,0V218.713A6,6,0,0,0,253.262,212.713Z" style="fill:#0635c9"/><path d="M359.778,88.756H346.766a40.5,40.5,0,0,0-40.021-34.63h-34.6V26.142a16.142,16.142,0,0,0-32.284,0V54.126h-34.6a40.5,40.5,0,0,0-40.021,34.63H152.222A40.491,40.491,0,0,0,111.777,129.2a6,6,0,0,0,6,6H394.223a6,6,0,0,0,6-6A40.491,40.491,0,0,0,359.778,88.756ZM251.858,26.142a4.142,4.142,0,0,1,8.284,0V54.126h-8.284ZM124.414,123.2a28.5,28.5,0,0,1,27.808-22.445H264.889a6,6,0,0,0,6-6h0a6,6,0,0,0-6-6H177.41a28.492,28.492,0,0,1,27.845-22.63h101.49a28.492,28.492,0,0,1,27.845,22.63h-19.7a6,6,0,0,0-6,6h0a6,6,0,0,0,6,6h44.889A28.5,28.5,0,0,1,387.586,123.2Z" style="fill:#1ae5be"/></svg>